<svg width="3000" height="3000" viewBox="0 0 3000 3000" fill="none" xmlns="http://www.w3.org/2000/svg">
<g clip-path="url(#clip0_3963_100241)">
<g clip-path="url(#clip1_3963_100241)">
<path d="M1053.87 1436.23C1053.18 1417.2 1049.55 1401.29 1042.97 1388.49C1036.74 1375.34 1028.27 1364.78 1017.54 1356.83C1007.16 1348.52 994.705 1342.64 980.173 1339.18C965.641 1335.72 950.071 1333.99 933.463 1333.99C920.661 1333.99 907.34 1335.37 893.5 1338.14C879.66 1340.56 867.031 1345.06 855.613 1351.64C844.541 1358.21 835.372 1367.03 828.106 1378.11C820.84 1388.83 817.207 1402.5 817.207 1419.11C817.207 1435.71 820.84 1449.04 828.106 1459.07C835.718 1469.1 845.406 1477.23 857.17 1483.46C869.28 1489.69 882.947 1494.53 898.171 1497.99C913.395 1501.45 928.965 1505.09 944.881 1508.89C962.181 1513.39 978.443 1517.72 993.667 1521.87C1009.24 1526.02 1022.73 1531.56 1034.15 1538.48C1045.57 1545.4 1054.56 1554.57 1061.14 1565.98C1068.06 1577.4 1071.52 1592.8 1071.52 1612.17C1071.52 1629.82 1067.71 1644.87 1060.1 1657.33C1052.49 1669.78 1042.45 1680.16 1030 1688.47C1017.54 1696.43 1003.53 1702.13 987.958 1705.6C972.388 1709.4 956.645 1711.3 940.729 1711.3C919.623 1711.3 900.074 1708.88 882.082 1704.04C864.436 1699.19 849.039 1691.58 835.891 1681.2C823.089 1670.48 813.055 1656.81 805.789 1640.2C798.869 1623.59 795.582 1603.52 795.928 1580H806.308C806.308 1602.14 809.595 1621 816.169 1636.57C822.743 1651.79 831.912 1664.25 843.676 1673.94C855.786 1683.62 869.972 1690.72 886.234 1695.21C902.842 1699.37 921.007 1701.44 940.729 1701.44C955.261 1701.44 969.62 1699.89 983.806 1696.77C998.338 1693.31 1011.31 1687.95 1022.73 1680.68C1034.15 1673.42 1043.32 1664.07 1050.24 1652.66C1057.5 1641.24 1061.14 1627.57 1061.14 1611.66C1061.14 1592.97 1056.99 1578.27 1048.68 1567.54C1040.72 1556.47 1030.34 1547.82 1017.54 1541.59C1005.09 1535.02 991.072 1530.17 975.502 1527.06C960.278 1523.6 945.573 1520.14 931.387 1516.68C916.509 1513.22 901.631 1509.59 886.753 1505.78C871.875 1501.97 858.381 1496.78 846.271 1490.21C834.507 1483.29 824.992 1474.29 817.726 1463.22C810.46 1451.8 806.827 1437.1 806.827 1419.11C806.827 1400.77 810.633 1385.54 818.245 1373.43C825.857 1360.98 835.718 1351.12 847.828 1343.85C859.938 1336.59 873.432 1331.4 888.31 1328.28C903.534 1325.17 918.585 1323.61 933.463 1323.61C951.801 1323.61 968.582 1325.69 983.806 1329.84C999.376 1333.64 1012.87 1340.05 1024.29 1349.04C1036.05 1357.69 1045.39 1369.28 1052.31 1383.81C1059.23 1398 1063.21 1415.47 1064.25 1436.23H1053.87ZM1250.58 1581.03L1201.27 1703H1189.85L1339.84 1332.43H1353.34L1499.7 1703H1488.28L1439.49 1581.03H1250.58ZM1435.34 1570.65L1347.11 1342.81H1346.07L1254.73 1570.65H1435.34ZM1848.92 1692.62V1703H1622.11V1332.43H1632.49V1692.62H1848.92ZM1982.36 1692.62H2220.07V1703H1971.98V1332.43H2217.99V1342.81H1982.36V1504.74H2203.98V1515.12H1982.36V1692.62Z" fill="#F4E623"/>
</g>
<g clip-path="url(#clip2_3963_100241)">
<path d="M896.704 1898.33C914.632 1898.33 925.837 1911.69 925.837 1929.62C925.837 1946.88 914.798 1960.41 896.704 1960.41C878.61 1960.41 867.571 1946.88 867.571 1929.62C867.571 1912.02 878.527 1898.33 896.704 1898.33ZM880.602 1929.62C880.602 1940.66 885.831 1949.45 896.704 1949.45C907.743 1949.45 912.806 1940.41 912.806 1929.62C912.806 1918.25 907.743 1909.28 896.621 1909.28C885.748 1909.28 880.602 1918.16 880.602 1929.62ZM949.745 1899.74H962.693L987.427 1939.49H987.593V1899.74H999.794V1959H986.763L962.112 1919.33H961.946V1959H949.745V1899.74ZM1026.27 1899.74H1039.3V1948.04H1068.18V1959H1026.27V1899.74ZM1090.47 1899.74H1103.5V1959H1090.47V1899.74ZM1129.94 1899.74H1142.89L1167.63 1939.49H1167.79V1899.74H1179.99V1959H1166.96L1142.31 1919.33H1142.15V1959H1129.94V1899.74ZM1206.46 1899.74H1250.79V1910.69H1219.5V1923.39H1248.21V1933.52H1219.5V1948.04H1251.45V1959H1206.46V1899.74ZM1329.57 1899.74H1342.93L1365.09 1959H1351.57L1347.08 1945.8H1324.92L1320.27 1959H1307.08L1329.57 1899.74ZM1336.21 1914.35H1336.04L1328.33 1936.09H1343.68L1336.21 1914.35ZM1385.21 1899.74H1398.15L1422.89 1939.49H1423.05V1899.74H1435.25V1959H1422.22L1397.57 1919.33H1397.41V1959H1385.21V1899.74ZM1461.73 1899.74H1487.12C1503.56 1899.74 1514.18 1910.36 1514.18 1929.04C1514.18 1947.71 1504.06 1959 1487.46 1959H1461.73V1899.74ZM1474.76 1948.04H1486.29C1494.43 1948.04 1501.15 1942.98 1501.15 1930.2C1501.15 1916.09 1494.93 1910.69 1484.05 1910.69H1474.76V1948.04ZM1576.35 1899.74H1589.38V1959H1576.35V1899.74ZM1615.83 1899.74H1628.77L1653.51 1939.49H1653.67V1899.74H1665.87V1959H1652.84L1628.19 1919.33H1628.03V1959H1615.83V1899.74ZM1750.86 1898.33C1763.56 1898.33 1774.6 1903.97 1774.6 1917.42H1761.99C1761.57 1911.44 1758.09 1908.45 1750.37 1908.45C1745.55 1908.45 1741.32 1910.53 1741.32 1915.18C1741.32 1919.49 1743.81 1920.32 1757.09 1923.64C1765.89 1925.88 1776.59 1928.87 1776.59 1941.4C1776.59 1952.61 1767.71 1960.41 1751.94 1960.41C1739.41 1960.41 1726.71 1954.43 1726.71 1939.74V1939.33H1739.33C1739.33 1947.71 1746.22 1950.28 1752.36 1950.28C1758.33 1950.28 1763.98 1948.29 1763.98 1942.9C1763.98 1939.16 1761.07 1936.84 1753.77 1935.01C1749.37 1933.85 1745.55 1933.02 1741.73 1931.78C1732.77 1928.79 1728.7 1923.72 1728.7 1916.17C1728.7 1904.22 1739.99 1898.33 1750.86 1898.33ZM1794.7 1899.74H1843.25V1910.69H1825.49V1959H1812.46V1910.69H1794.7V1899.74ZM1891.65 1898.33C1909.58 1898.33 1920.78 1911.69 1920.78 1929.62C1920.78 1946.88 1909.74 1960.41 1891.65 1960.41C1873.55 1960.41 1862.51 1946.88 1862.51 1929.62C1862.51 1912.02 1873.47 1898.33 1891.65 1898.33ZM1875.55 1929.62C1875.55 1940.66 1880.77 1949.45 1891.65 1949.45C1902.69 1949.45 1907.75 1940.41 1907.75 1929.62C1907.75 1918.25 1902.69 1909.28 1891.56 1909.28C1880.69 1909.28 1875.55 1918.16 1875.55 1929.62ZM1944.69 1899.74H1976.64C1987.1 1899.74 1993.99 1906.96 1993.99 1916.09C1993.99 1923.56 1990.84 1928.46 1984.61 1930.95V1931.11C1992.91 1933.44 1993.16 1942.57 1993.41 1948.13C1993.66 1953.77 1994.24 1956.92 1995.73 1959H1982.7C1981.71 1956.51 1981.37 1952.94 1981.04 1948.71C1980.38 1940.41 1979.05 1935.84 1970.83 1935.84H1957.72V1959H1944.69V1899.74ZM1957.72 1926.55H1972.08C1977.56 1926.55 1980.96 1924.31 1980.96 1918.08C1980.96 1912.19 1977.72 1909.86 1972 1909.86H1957.72V1926.55ZM2019.59 1899.74H2063.91V1910.69H2032.62V1923.39H2061.34V1933.52H2032.62V1948.04H2064.57V1959H2019.59V1899.74ZM2108.83 1898.33C2121.53 1898.33 2132.56 1903.97 2132.56 1917.42H2119.95C2119.53 1911.44 2116.05 1908.45 2108.33 1908.45C2103.51 1908.45 2099.28 1910.53 2099.28 1915.18C2099.28 1919.49 2101.77 1920.32 2115.05 1923.64C2123.85 1925.88 2134.56 1928.87 2134.56 1941.4C2134.56 1952.61 2125.68 1960.41 2109.91 1960.41C2097.37 1960.41 2084.67 1954.43 2084.67 1939.74V1939.33H2097.29C2097.29 1947.71 2104.18 1950.28 2110.32 1950.28C2116.3 1950.28 2121.94 1948.29 2121.94 1942.9C2121.94 1939.16 2119.04 1936.84 2111.73 1935.01C2107.33 1933.85 2103.51 1933.02 2099.7 1931.78C2090.73 1928.79 2086.67 1923.72 2086.67 1916.17C2086.67 1904.22 2097.95 1898.33 2108.83 1898.33Z" fill="white"/>
</g>
</g>
<defs>
<clipPath id="clip0_3963_100241">
<rect width="3000" height="3000" fill="white"/>
</clipPath>
<clipPath id="clip1_3963_100241">
<rect width="1651" height="608" fill="white" transform="translate(675 1213)"/>
</clipPath>
<clipPath id="clip2_3963_100241">
<rect width="1651" height="97" fill="white" transform="translate(675 1882)"/>
</clipPath>
</defs>
</svg>
